<?xml version="1.0" standalone="no"?>
<!DOCTYPE svg PUBLIC "-//W3C//DTD SVG 20010904//EN"
 "http://www.w3.org/TR/2001/REC-SVG-20010904/DTD/svg10.dtd">
<svg version="1.0" xmlns="http://www.w3.org/2000/svg"
 width="700.000000pt" height="700.000000pt" viewBox="0 0 700.000000 700.000000"
 preserveAspectRatio="xMidYMid meet">
<metadata>
Created by potrace 1.14, written by Peter Selinger 2001-2017
</metadata>
<g transform="translate(0.000000,700.000000) scale(0.100000,-0.100000)"
fill="#000000" stroke="none">
<path d="M3427 5755 c-1 -2 -51 -6 -112 -9 -60 -4 -123 -9 -140 -11 -16 -2
-52 -6 -80 -9 -75 -8 -129 -16 -250 -37 -427 -71 -758 -196 -1004 -377 -223
-164 -386 -389 -475 -655 -28 -84 -72 -277 -81 -357 -3 -30 -8 -66 -10 -80 -9
-58 -17 -247 -17 -410 0 -161 2 -230 18 -588 l5 -123 -23 6 c-13 2 -36 7 -53
10 -16 3 -55 9 -85 14 -243 43 -508 48 -642 13 -146 -39 -241 -97 -308 -187
-57 -77 -82 -139 -107 -265 -10 -51 -6 -227 7 -280 42 -177 172 -349 371 -492
83 -59 244 -154 309 -181 19 -8 55 -24 80 -35 343 -160 914 -300 1533 -377 20
-3 54 -7 75 -10 35 -5 64 -8 190 -19 219 -20 192 -18 447 -32 277 -16 1011 -9
1225 11 19 2 73 6 120 9 47 4 101 9 120 11 19 2 62 7 95 10 85 8 340 40 395
50 14 3 41 7 60 10 19 3 73 13 120 21 47 9 99 18 115 21 17 2 57 11 90 18 33
8 71 17 85 19 107 19 522 142 595 176 11 5 55 23 99 41 116 47 269 128 371
197 369 246 488 553 350 895 -66 162 -196 284 -373 351 -142 53 -199 61 -422
61 -159 0 -223 -5 -302 -21 l-28 -6 -1 184 c0 101 -2 212 -4 248 -5 122 -17
335 -20 350 -2 8 -6 44 -10 80 -3 36 -13 108 -21 160 -13 91 -17 115 -29 170
-3 14 -7 34 -9 45 -18 84 -51 208 -77 282 -34 97 -146 336 -160 341 -5 2 -9 8
-9 14 0 5 -31 52 -70 103 -228 304 -594 501 -1075 579 -193 32 -274 41 -465
52 -105 6 -408 12 -413 9z"/>
</g>
</svg>
